<svg width="38" height="38" viewBox="0 0 38 38" fill="none" xmlns="http://www.w3.org/2000/svg">
<path d="M14.0456 33.7179C15.3549 33.7179 16.4164 32.6564 16.4164 31.3471C16.4164 30.0377 15.3549 28.9763 14.0456 28.9763C12.7362 28.9763 11.6748 30.0377 11.6748 31.3471C11.6748 32.6564 12.7362 33.7179 14.0456 33.7179Z" fill="white"/>
<path d="M28.4494 33.7179C29.7587 33.7179 30.8202 32.6564 30.8202 31.3471C30.8202 30.0377 29.7587 28.9763 28.4494 28.9763C27.1401 28.9763 26.0786 30.0377 26.0786 31.3471C26.0786 32.6564 27.1401 33.7179 28.4494 33.7179Z" fill="white"/>
<path d="M34 7C33.9096 6.66859 33.8631 6.33452 33.861 6C33.8631 5.66548 33.9096 5.33141 34 5H12L13.2906 7H34Z" fill="white"/>
<path d="M31.6105 14.2247H31.168L29.8509 20.02H14.0456L9.23029 4.77317C9.1782 4.61139 9.08775 4.46461 8.96666 4.34535C8.84556 4.22609 8.69742 4.13789 8.53486 4.08828L4.21476 2.76064C4.08192 2.71982 3.94235 2.70556 3.804 2.71869C3.66565 2.73181 3.53125 2.77205 3.40845 2.83712C3.16046 2.96852 2.97483 3.19306 2.89239 3.46134C2.80995 3.72962 2.83746 4.01965 2.96886 4.26764C3.10027 4.51564 3.32481 4.70127 3.59309 4.78371L7.37581 5.94276L12.2122 21.2212L10.4842 22.6331L10.3472 22.7701C9.91975 23.2627 9.67747 23.8889 9.66209 24.5409C9.6467 25.1929 9.85917 25.8299 10.2629 26.3421C10.5501 26.6913 10.915 26.9685 11.3285 27.1515C11.742 27.3344 12.1926 27.4181 12.6442 27.3957H30.2302C30.5096 27.3957 30.7776 27.2847 30.9753 27.0871C31.1729 26.8895 31.2839 26.6215 31.2839 26.3421C31.2839 26.0626 31.1729 25.7946 30.9753 25.597C30.7776 25.3994 30.5096 25.2884 30.2302 25.2884H12.4756C12.3543 25.2842 12.2361 25.2489 12.1324 25.1857C12.0287 25.1225 11.9431 25.0337 11.8838 24.9278C11.8245 24.8218 11.7935 24.7024 11.7938 24.581C11.7941 24.4596 11.8257 24.3403 11.8856 24.2347L14.4249 22.1273H30.6938C30.9374 22.1333 31.1755 22.0546 31.3676 21.9048C31.5597 21.7549 31.694 21.5431 31.7475 21.3055L33.4018 14.0245C32.8143 14.1592 32.2133 14.2264 31.6105 14.2247Z" fill="white"/>
</svg>
