<svg width="34" height="34" viewBox="0 0 34 34" fill="none" xmlns="http://www.w3.org/2000/svg">
<path d="M19.9962 16.9982L33.3754 3.64019C33.7753 3.2403 34 2.69792 34 2.13238C34 1.56684 33.7753 1.02446 33.3754 0.624559C32.9755 0.224661 32.4332 0 31.8676 0C31.3021 0 30.7597 0.224661 30.3598 0.624559L17.0018 14.0038L3.64382 0.624559C3.24392 0.224661 2.70154 5.02113e-07 2.136 5.06327e-07C1.57046 5.1054e-07 1.02808 0.224661 0.628183 0.624559C0.228285 1.02446 0.0036248 1.56684 0.00362479 2.13238C0.00362479 2.69792 0.228285 3.2403 0.628183 3.64019L14.0074 16.9982L0.628183 30.3562C0.429133 30.5536 0.271144 30.7885 0.163327 31.0473C0.05551 31.3061 0 31.5836 0 31.864C0 32.1443 0.05551 32.4219 0.163327 32.6807C0.271144 32.9395 0.429133 33.1744 0.628183 33.3718C0.825607 33.5709 1.06049 33.7289 1.31928 33.8367C1.57807 33.9445 1.85565 34 2.136 34C2.41635 34 2.69393 33.9445 2.95272 33.8367C3.21151 33.7289 3.44639 33.5709 3.64382 33.3718L17.0018 19.9926L30.3598 33.3718C30.5572 33.5709 30.7921 33.7289 31.0509 33.8367C31.3097 33.9445 31.5873 34 31.8676 34C32.148 34 32.4256 33.9445 32.6843 33.8367C32.9431 33.7289 33.178 33.5709 33.3754 33.3718C33.5745 33.1744 33.7325 32.9395 33.8403 32.6807C33.9481 32.4219 34.0036 32.1443 34.0036 31.864C34.0036 31.5836 33.9481 31.3061 33.8403 31.0473C33.7325 30.7885 33.5745 30.5536 33.3754 30.3562L19.9962 16.9982Z" fill="white"/>
</svg>
