<svg width="202" height="46" viewBox="0 0 202 46" fill="none" xmlns="http://www.w3.org/2000/svg">
<path d="M29.7586 43.331C34.4926 43.331 38.2003 41.113 38.2003 36.3459C38.2003 31.6782 34.0953 30.0891 30.4869 28.6656C27.6068 27.5732 25.0246 26.5138 25.0246 24.0641C25.0246 21.5812 27.1764 20.4556 29.6924 20.4556C32.7711 20.4556 34.8898 21.6474 36.0154 23.3358L38.0348 21.2833C36.3795 19.297 33.4663 17.8404 29.6262 17.8404C25.4549 17.8404 21.9789 20.0915 21.9789 24.2958C21.9789 28.3015 25.5874 29.6588 29.0303 30.9499C32.1752 32.1416 35.1878 33.3003 35.1547 36.5115C35.1215 39.2923 32.8042 40.4509 29.8579 40.4509C26.4481 40.4509 23.568 38.7957 22.5748 36.3128L20.3899 38.5309C22.1114 41.3448 25.6867 43.331 29.7586 43.331ZM56.5372 34.7238C56.5372 29.6919 53.7564 26.1166 49.0225 26.1166C44.1561 26.1166 41.1435 29.8243 41.1435 34.7569C41.1435 39.6895 44.1229 43.331 49.0225 43.331C52.1343 43.331 54.3854 41.9075 55.7427 39.4578L53.6902 38.0343C52.366 40.0868 51.1081 40.782 49.1218 40.782C46.043 40.782 44.2885 38.7295 43.9905 35.6838H56.5041C56.5372 35.3528 56.5372 35.0217 56.5372 34.7238ZM49.0887 28.6325C51.9026 28.6325 53.5909 30.4864 53.8889 33.3996H44.0567C44.4871 30.5526 46.2085 28.6325 49.0887 28.6325ZM65.5392 43.331C67.0289 43.331 68.2206 42.8676 69.0152 42.04L67.393 40.0537C66.8965 40.5833 66.3337 40.8151 65.6054 40.8151C64.2481 40.8151 63.4205 39.9875 63.4205 38.3653L63.3873 18.1714H60.4741V38.3653C60.4741 41.3117 62.4273 43.331 65.5392 43.331ZM75.7404 22.9054C75.7404 21.4157 76.6342 20.2901 77.9253 20.2901C78.786 20.2901 79.5474 20.7205 80.0109 21.3495L81.6661 19.5618C80.4743 18.1052 79.0839 17.8404 77.8922 17.8404C75.0783 17.8404 72.794 19.9922 72.794 22.7399V26.4476H70.0132V28.7318H72.794V43H75.7404V28.7318H80.0771V26.4476H75.7404V22.9054ZM94.6817 43.331C97.1977 43.331 99.5481 42.4703 101.435 41.0137V37.3722C99.5812 39.4247 97.2639 40.4509 94.6817 40.4509C89.1532 40.4509 85.4124 36.1142 85.4124 30.5857C85.4124 25.0572 89.1532 20.7205 94.6817 20.7205C97.2308 20.7205 99.5481 21.7467 101.435 23.7992V20.1577C99.5481 18.7011 97.1977 17.8404 94.6817 17.8404C87.6304 17.8404 82.5654 23.5344 82.5654 30.5857C82.5654 37.637 87.6304 43.331 94.6817 43.331ZM113.186 26.1166C111.266 26.1166 109.479 27.2421 108.287 28.9636L108.154 26.4476H105.473V43H108.386V33.7307C108.386 30.7843 110.637 28.6987 113.054 28.6987C114.246 28.6987 115.007 29.0298 115.371 29.2284L116.795 27.1097C115.868 26.4145 114.941 26.1166 113.186 26.1166ZM124.528 26.1166C121.383 26.1166 119.198 27.2752 117.94 29.096L119.96 30.8836C120.953 29.3939 122.442 28.5994 124.396 28.5994C126.647 28.5994 128.501 29.6919 128.501 32.2078V34.161L125.488 33.6644C119.695 32.7044 117.444 35.3197 117.444 38.266C117.444 41.2123 119.562 43.331 122.509 43.331C124.66 43.331 126.845 42.2386 128.633 40.6496L128.799 43H131.381V32.4065C131.381 28.1359 128.335 26.1166 124.528 26.1166ZM120.423 38.1336C120.423 36.5115 121.615 35.088 125.786 35.8494L128.501 36.3128V38.1998C126.945 39.6233 125.091 40.7158 123.171 40.7158C121.515 40.7158 120.423 39.6895 120.423 38.1336ZM140.786 22.9054C140.786 21.4157 141.68 20.2901 142.971 20.2901C143.832 20.2901 144.593 20.7205 145.057 21.3495L146.712 19.5618C145.52 18.1052 144.13 17.8404 142.938 17.8404C140.124 17.8404 137.84 19.9922 137.84 22.7399V26.4476H135.059V28.7318H137.84V43H140.786V28.7318H145.123V26.4476H140.786V22.9054ZM155.755 40.0537C155.258 40.5833 154.696 40.8151 153.967 40.8151C152.61 40.8151 151.782 39.9875 151.782 38.3653V28.7318H156.251V26.4476H151.749V20.8198H148.836V26.4476H146.684V28.7318H148.836V38.3653C148.836 41.3117 150.822 43.331 153.901 43.331C155.424 43.331 156.583 42.8676 157.377 42.04L155.755 40.0537ZM174.182 34.7238C174.182 29.6919 171.401 26.1166 166.667 26.1166C161.801 26.1166 158.788 29.8243 158.788 34.7569C158.788 39.6895 161.768 43.331 166.667 43.331C169.779 43.331 172.03 41.9075 173.388 39.4578L171.335 38.0343C170.011 40.0868 168.753 40.782 166.767 40.782C163.688 40.782 161.933 38.7295 161.635 35.6838H174.149C174.182 35.3528 174.182 35.0217 174.182 34.7238ZM166.734 28.6325C169.547 28.6325 171.236 30.4864 171.534 33.3996H161.702C162.132 30.5526 163.853 28.6325 166.734 28.6325ZM189.871 18.1714V28.6987C188.58 27.1097 186.693 26.1166 184.442 26.1166C179.774 26.1166 176.828 29.9236 176.828 34.7238C176.828 39.524 179.774 43.331 184.442 43.331C186.759 43.331 188.646 42.3048 189.971 40.6165L190.103 43H192.718V18.1714H189.871ZM184.905 40.7158C181.661 40.7158 179.708 38.0674 179.708 34.7238C179.708 31.3802 181.661 28.6987 184.905 28.6987C187.289 28.6987 189.242 30.4864 189.871 32.9361V36.5115C189.242 38.9612 187.289 40.7158 184.905 40.7158ZM198.205 43.331C199.264 43.331 200.158 42.4372 200.158 41.3779C200.158 40.3516 199.264 39.4578 198.205 39.4578C197.145 39.4578 196.284 40.3516 196.284 41.3779C196.284 42.4372 197.145 43.331 198.205 43.331Z" fill="white"/>
<path d="M16.2261 28.9227C13.8598 23.2991 17.7625 14.671 23.7704 12.3858C25.6844 11.6577 32.9433 10.7728 34.8476 10.991" stroke="url(#paint0_linear_508_304)" stroke-width="2.06905"/>
<path d="M11.8693 13.0529L34.8478 10.9912L5.66088 4.90687M11.8693 13.0529L16.4275 29.5866L11.1288 25.2477M11.8693 13.0529L5.66088 4.90687M5.66088 4.90687L3.70953 30.1002L11.1288 25.2477M5.66088 4.90687L11.1288 25.2477" stroke="url(#paint1_linear_508_304)" stroke-width="2.06905"/>
<defs>
<linearGradient id="paint0_linear_508_304" x1="31.1877" y1="15.4705" x2="15.2677" y2="22.1691" gradientUnits="userSpaceOnUse">
<stop stop-color="#00FFD2"/>
<stop offset="1" stop-color="#114239"/>
</linearGradient>
<linearGradient id="paint1_linear_508_304" x1="15.438" y1="10.5337" x2="25.1816" y2="22.396" gradientUnits="userSpaceOnUse">
<stop stop-color="#92CEC0"/>
<stop offset="1" stop-color="white"/>
</linearGradient>
</defs>
</svg>
