<svg width="328" height="129" viewBox="0 0 328 129" fill="none" xmlns="http://www.w3.org/2000/svg">
<path d="M57.6 73.48C64.464 73.48 69.84 70.264 69.84 63.352C69.84 56.584 63.888 54.28 58.656 52.216C54.48 50.632 50.736 49.096 50.736 45.544C50.736 41.944 53.856 40.312 57.504 40.312C61.968 40.312 65.04 42.04 66.672 44.488L69.6 41.512C67.2 38.632 62.976 36.52 57.408 36.52C51.36 36.52 46.32 39.784 46.32 45.88C46.32 51.688 51.552 53.656 56.544 55.528C61.104 57.256 65.472 58.936 65.424 63.592C65.376 67.624 62.016 69.304 57.744 69.304C52.8 69.304 48.624 66.904 47.184 63.304L44.016 66.52C46.512 70.6 51.696 73.48 57.6 73.48ZM96.4275 61C96.4275 53.704 92.3955 48.52 85.5315 48.52C78.4755 48.52 74.1075 53.896 74.1075 61.048C74.1075 68.2 78.4275 73.48 85.5315 73.48C90.0435 73.48 93.3075 71.416 95.2755 67.864L92.2995 65.8C90.3795 68.776 88.5555 69.784 85.6755 69.784C81.2115 69.784 78.6675 66.808 78.2355 62.392H96.3795C96.4275 61.912 96.4275 61.432 96.4275 61ZM85.6275 52.168C89.7075 52.168 92.1555 54.856 92.5875 59.08H78.3315C78.9555 54.952 81.4515 52.168 85.6275 52.168ZM109.48 73.48C111.64 73.48 113.368 72.808 114.52 71.608L112.168 68.728C111.448 69.496 110.632 69.832 109.576 69.832C107.608 69.832 106.408 68.632 106.408 66.28L106.36 37H102.136V66.28C102.136 70.552 104.968 73.48 109.48 73.48ZM124.271 43.864C124.271 41.704 125.567 40.072 127.439 40.072C128.687 40.072 129.791 40.696 130.463 41.608L132.863 39.016C131.135 36.904 129.119 36.52 127.391 36.52C123.311 36.52 119.999 39.64 119.999 43.624V49H115.967V52.312H119.999V73H124.271V52.312H130.559V49H124.271V43.864ZM151.735 73.48C155.383 73.48 158.791 72.232 161.527 70.12V64.84C158.839 67.816 155.479 69.304 151.735 69.304C143.719 69.304 138.295 63.016 138.295 55C138.295 46.984 143.719 40.696 151.735 40.696C155.431 40.696 158.791 42.184 161.527 45.16V39.88C158.791 37.768 155.383 36.52 151.735 36.52C141.511 36.52 134.167 44.776 134.167 55C134.167 65.224 141.511 73.48 151.735 73.48ZM178.565 48.52C175.781 48.52 173.189 50.152 171.461 52.648L171.269 49H167.381V73H171.605V59.56C171.605 55.288 174.869 52.264 178.373 52.264C180.101 52.264 181.205 52.744 181.733 53.032L183.797 49.96C182.453 48.952 181.109 48.52 178.565 48.52ZM195.01 48.52C190.45 48.52 187.282 50.2 185.458 52.84L188.386 55.432C189.826 53.272 191.986 52.12 194.818 52.12C198.082 52.12 200.77 53.704 200.77 57.352V60.184L196.402 59.464C188.002 58.072 184.738 61.864 184.738 66.136C184.738 70.408 187.81 73.48 192.082 73.48C195.202 73.48 198.37 71.896 200.962 69.592L201.202 73H204.946V57.64C204.946 51.448 200.53 48.52 195.01 48.52ZM189.058 65.944C189.058 63.592 190.786 61.528 196.834 62.632L200.77 63.304V66.04C198.514 68.104 195.826 69.688 193.042 69.688C190.642 69.688 189.058 68.2 189.058 65.944ZM218.583 43.864C218.583 41.704 219.879 40.072 221.751 40.072C222.999 40.072 224.103 40.696 224.775 41.608L227.175 39.016C225.447 36.904 223.431 36.52 221.703 36.52C217.623 36.52 214.311 39.64 214.311 43.624V49H210.279V52.312H214.311V73H218.583V52.312H224.871V49H218.583V43.864ZM240.287 68.728C239.567 69.496 238.751 69.832 237.695 69.832C235.727 69.832 234.527 68.632 234.527 66.28V52.312H241.007V49H234.479V40.84H230.255V49H227.135V52.312H230.255V66.28C230.255 70.552 233.135 73.48 237.599 73.48C239.807 73.48 241.487 72.808 242.639 71.608L240.287 68.728ZM267.006 61C267.006 53.704 262.974 48.52 256.11 48.52C249.054 48.52 244.686 53.896 244.686 61.048C244.686 68.2 249.006 73.48 256.11 73.48C260.622 73.48 263.886 71.416 265.854 67.864L262.878 65.8C260.958 68.776 259.134 69.784 256.254 69.784C251.79 69.784 249.246 66.808 248.814 62.392H266.958C267.006 61.912 267.006 61.432 267.006 61ZM256.206 52.168C260.286 52.168 262.734 54.856 263.166 59.08H248.91C249.534 54.952 252.03 52.168 256.206 52.168ZM289.754 37V52.264C287.882 49.96 285.146 48.52 281.882 48.52C275.114 48.52 270.842 54.04 270.842 61C270.842 67.96 275.114 73.48 281.882 73.48C285.242 73.48 287.978 71.992 289.898 69.544L290.09 73H293.882V37H289.754ZM282.554 69.688C277.85 69.688 275.018 65.848 275.018 61C275.018 56.152 277.85 52.264 282.554 52.264C286.01 52.264 288.842 54.856 289.754 58.408V63.592C288.842 67.144 286.01 69.688 282.554 69.688ZM301.837 73.48C303.373 73.48 304.669 72.184 304.669 70.648C304.669 69.16 303.373 67.864 301.837 67.864C300.301 67.864 299.053 69.16 299.053 70.648C299.053 72.184 300.301 73.48 301.837 73.48Z" fill="white"/>
<path d="M37.4769 52.086C34.046 43.9322 39.7046 31.4219 48.4158 28.1085C51.191 27.0529 61.716 25.7699 64.477 26.0861" stroke="url(#paint0_linear_403_2)" stroke-width="3"/>
<path d="M31.1596 29.0755L64.4771 26.0861L22.1577 17.2642M31.1596 29.0755L37.7686 53.0484L30.0859 46.7572M31.1596 29.0755L22.1577 17.2642M22.1577 17.2642L19.3284 53.7931L30.0859 46.7572M22.1577 17.2642L30.0859 46.7572" stroke="url(#paint1_linear_403_2)" stroke-width="3"/>
<defs>
<linearGradient id="paint0_linear_403_2" x1="59.1704" y1="32.5812" x2="36.0874" y2="42.2938" gradientUnits="userSpaceOnUse">
<stop stop-color="#00FFD2"/>
<stop offset="1" stop-color="#114239"/>
</linearGradient>
<linearGradient id="paint1_linear_403_2" x1="36.334" y1="25.4228" x2="50.4617" y2="42.6224" gradientUnits="userSpaceOnUse">
<stop stop-color="#92CEC0"/>
<stop offset="1" stop-color="white"/>
</linearGradient>
</defs>
</svg>
