<svg xmlns="http://www.w3.org/2000/svg" viewBox="0 0 351.75 64" fill="none" role="img" aria-label="avarnic">
  <g id="mark">
    <path d="M 50.31 0.00 L 36.25 0.00 L 35.88 1.11 L 32.18 2.96 L 1.11 58.82 L 0.00 59.19 L 2.22 62.15 L 39.58 62.52 L 42.54 61.41 L 45.50 58.82 L 52.53 45.50 L 31.82 45.50 L 31.45 43.28 L 53.64 4.44 L 53.27 2.59 L 50.68 1.11 Z" fill="#011449"/>
    <path d="M 53.64 5.55 L 42.91 24.79 L 55.49 48.46 L 56.60 49.20 L 57.34 51.79 L 58.45 52.53 L 59.19 55.12 L 60.30 55.86 L 61.41 59.56 L 64.37 62.15 L 66.22 62.52 L 76.95 62.15 L 79.54 60.30 L 81.76 55.12 L 80.65 54.38 L 71.77 36.62 L 71.40 34.03 L 70.29 34.03 L 54.75 5.55 Z" fill="#0A31B8"/>
    <path d="M 103.21 15.54 L 86.57 15.54 L 83.24 16.65 L 80.28 19.61 L 71.77 34.40 L 72.14 36.62 L 81.39 55.12 L 82.87 54.38 L 102.47 18.87 L 103.58 16.65 Z" fill="#0232F9"/>
  </g>
  <g id="wordmark" fill="#011449">
    <path d="M134.97464788732395 51.647887323943664Q130.76338028169013 51.647887323943664 127.36197183098591 49.50985915492958Q123.96056338028168 47.371830985915494 121.98450704225351 43.71126760563381Q120.00845070422535 40.05070422535211 120.00845070422535 35.51549295774648Q120.00845070422535 30.91549295774648 121.98450704225351 27.25492957746479Q123.96056338028168 23.5943661971831 127.36197183098591 21.423943661971833Q130.76338028169013 19.253521126760564 134.97464788732395 19.253521126760564Q138.53802816901407 19.253521126760564 141.29154929577464 20.77605633802817Q144.04507042253522 22.298591549295775 145.66478873239436 24.95492957746479Q147.28450704225352 27.611267605633802 147.28450704225352 30.980281690140846V39.92112676056338Q147.28450704225352 43.290140845070425 145.69718309859155 45.94647887323944Q144.10985915492958 48.60281690140845 141.32394366197184 50.125352112676055Q138.53802816901407 51.647887323943664 134.97464788732395 51.647887323943664ZM136.14084507042253 44.90985915492958Q140.09295774647887 44.90985915492958 142.5225352112676 42.25352112676056Q144.95211267605634 39.59718309859155 144.95211267605634 35.45070422535211Q144.95211267605634 32.66478873239437 143.8507042253521 30.526760563380286Q142.7492957746479 28.388732394366198 140.77323943661972 27.190140845070424Q138.79718309859155 25.99154929577465 136.14084507042253 25.99154929577465Q133.54929577464787 25.99154929577465 131.5732394366197 27.190140845070424Q129.59718309859156 28.388732394366198 128.46338028169015 30.526760563380286Q127.32957746478873 32.66478873239437 127.32957746478873 35.45070422535211Q127.32957746478873 38.23661971830986 128.46338028169015 40.374647887323945Q129.59718309859156 42.51267605633803 131.5732394366197 43.71126760563381Q133.54929577464787 44.90985915492958 136.14084507042253 44.90985915492958ZM144.49859154929578 51.0V42.64225352112676L145.72957746478875 35.06197183098592L144.49859154929578 27.546478873239437V19.901408450704228H151.62535211267607V51.0Z"/>
    <path d="M172.29295774647886 51.0 158.10422535211268 19.901408450704228H166.00845070422534L176.8281690140845 45.23380281690141H172.16338028169014L183.04788732394366 19.901408450704228H190.6281690140845L176.4394366197183 51.0Z"/>
    <path d="M210.12957746478872 51.647887323943664Q205.9183098591549 51.647887323943664 202.51690140845068 49.50985915492958Q199.11549295774645 47.371830985915494 197.13943661971828 43.71126760563381Q195.1633802816901 40.05070422535211 195.1633802816901 35.51549295774648Q195.1633802816901 30.91549295774648 197.13943661971828 27.25492957746479Q199.11549295774645 23.5943661971831 202.51690140845068 21.423943661971833Q205.9183098591549 19.253521126760564 210.12957746478872 19.253521126760564Q213.69295774647884 19.253521126760564 216.4464788732394 20.77605633802817Q219.2 22.298591549295775 220.81971830985913 24.95492957746479Q222.4394366197183 27.611267605633802 222.4394366197183 30.980281690140846V39.92112676056338Q222.4394366197183 43.290140845070425 220.85211267605632 45.94647887323944Q219.26478873239435 48.60281690140845 216.4788732394366 50.125352112676055Q213.69295774647884 51.647887323943664 210.12957746478872 51.647887323943664ZM211.2957746478873 44.90985915492958Q215.24788732394364 44.90985915492958 217.67746478873238 42.25352112676056Q220.10704225352112 39.59718309859155 220.10704225352112 35.45070422535211Q220.10704225352112 32.66478873239437 219.00563380281687 30.526760563380286Q217.90422535211266 28.388732394366198 215.9281690140845 27.190140845070424Q213.95211267605632 25.99154929577465 211.2957746478873 25.99154929577465Q208.70422535211264 25.99154929577465 206.72816901408447 27.190140845070424Q204.75211267605633 28.388732394366198 203.61830985915492 30.526760563380286Q202.4845070422535 32.66478873239437 202.4845070422535 35.45070422535211Q202.4845070422535 38.23661971830986 203.61830985915492 40.374647887323945Q204.75211267605633 42.51267605633803 206.72816901408447 43.71126760563381Q208.70422535211264 44.90985915492958 211.2957746478873 44.90985915492958ZM219.65352112676055 51.0V42.64225352112676L220.88450704225352 35.06197183098592L219.65352112676055 27.546478873239437V19.901408450704228H226.78028169014084V51.0Z"/>
    <path d="M236.95211267605634 51.0V19.901408450704228H244.07887323943663V51.0ZM244.07887323943663 33.70140845070422 241.6169014084507 32.47042253521127Q241.6169014084507 26.574647887323945 244.24084507042255 22.914084507042254Q246.86478873239437 19.253521126760564 252.17746478873238 19.253521126760564Q254.5098591549296 19.253521126760564 256.38873239436623 20.095774647887325Q258.2676056338028 20.938028169014085 259.88732394366195 22.816901408450704L255.2225352112676 27.611267605633802Q254.38028169014083 26.704225352112676 253.34366197183098 26.31549295774648Q252.30704225352113 25.926760563380284 250.94647887323944 25.926760563380284Q247.9661971830986 25.926760563380284 246.0225352112676 27.805633802816903Q244.07887323943663 29.68450704225352 244.07887323943663 33.70140845070422Z"/>
    <path d="M288.07042253521126 51.0V33.053521126760565Q288.07042253521126 29.943661971830988 286.0943661971831 27.935211267605638Q284.1183098591549 25.926760563380284 281.02431733256685 25.926760563380284Q278.9186835297499 25.926760563380284 277.30722908881864 26.83380281690141Q275.69577464788733 27.740845070422537 274.7887323943662 29.36056338028169Q273.8816901408451 30.980281690140846 273.8816901408451 33.053521126760565L271.0957746478873 31.498591549295774Q271.0957746478873 27.935211267605634 272.6507042253521 25.18169014084507Q274.2056338028169 22.42816901408451 276.95241295488665 20.84084507042254Q279.69919210695645 19.253521126760564 283.1721312647458 19.253521126760564Q286.6450704225352 19.253521126760564 289.36619718309856 21.035211267605632Q292.08732394366194 22.816901408450704 293.64225352112675 25.635211267605634Q295.19718309859155 28.453521126760563 295.19718309859155 31.498591549295774V51.0ZM266.7549295774648 51.0V19.901408450704228H273.8816901408451V51.0Z"/>
    <path d="M304.7859154929577 51.0V19.901408450704228H311.912676056338V51.0ZM308.3492957746479 14.200000000000003Q306.53521126760563 14.200000000000003 305.33661971830986 12.969014084507045Q304.1380281690141 11.738028169014086 304.1380281690141 9.923943661971833Q304.1380281690141 8.10985915492958 305.33661971830986 6.878873239436622Q306.53521126760563 5.647887323943664 308.3492957746479 5.647887323943664Q310.2281690140845 5.647887323943664 311.3943661971831 6.878873239436622Q312.5605633802817 8.10985915492958 312.5605633802817 9.923943661971833Q312.5605633802817 11.738028169014086 311.3943661971831 12.969014084507045Q310.2281690140845 14.200000000000003 308.3492957746479 14.200000000000003Z"/>
    <path d="M336.4676056338028 51.647887323943664Q331.86760563380284 51.647887323943664 328.1422535211268 49.50985915492958Q324.4169014084507 47.371830985915494 322.2788732394366 43.67887323943662Q320.14084507042253 39.985915492957744 320.14084507042253 35.45070422535211Q320.14084507042253 30.850704225352114 322.2788732394366 27.190140845070424Q324.4169014084507 23.529577464788733 328.1422535211268 21.39154929577465Q331.86760563380284 19.253521126760564 336.4676056338028 19.253521126760564Q340.0957746478873 19.253521126760564 343.2380281690141 20.646478873239438Q346.38028169014086 22.039436619718312 348.5830985915493 24.63098591549296L343.91830985915493 29.36056338028169Q342.55774647887324 27.740845070422537 340.6464788732394 26.93098591549296Q338.7352112676056 26.12112676056338 336.4676056338028 26.12112676056338Q333.8112676056338 26.12112676056338 331.7704225352113 27.319718309859155Q329.72957746478875 28.51830985915493 328.5957746478873 30.591549295774648Q327.46197183098593 32.66478873239437 327.46197183098593 35.45070422535211Q327.46197183098593 38.17183098591549 328.5957746478873 40.277464788732395Q329.72957746478875 42.3830985915493 331.7704225352113 43.58169014084507Q333.8112676056338 44.780281690140846 336.4676056338028 44.780281690140846Q338.7352112676056 44.780281690140846 340.6464788732394 43.97042253521127Q342.55774647887324 43.16056338028169 343.91830985915493 41.540845070422534L348.5830985915493 46.27042253521127Q346.38028169014086 48.861971830985915 343.2380281690141 50.25492957746479Q340.0957746478873 51.647887323943664 336.4676056338028 51.647887323943664Z"/>
  </g>
</svg>