<svg xmlns="http://www.w3.org/2000/svg" viewBox="0 0 104 64" fill="none" role="img" aria-label="avarnic mark">
  <path d="M 50.31 0.00 L 36.25 0.00 L 35.88 1.11 L 32.18 2.96 L 1.11 58.82 L 0.00 59.19 L 2.22 62.15 L 39.58 62.52 L 42.54 61.41 L 45.50 58.82 L 52.53 45.50 L 31.82 45.50 L 31.45 43.28 L 53.64 4.44 L 53.27 2.59 L 50.68 1.11 Z" fill="#011449"/>
  <path d="M 53.64 5.55 L 42.91 24.79 L 55.49 48.46 L 56.60 49.20 L 57.34 51.79 L 58.45 52.53 L 59.19 55.12 L 60.30 55.86 L 61.41 59.56 L 64.37 62.15 L 66.22 62.52 L 76.95 62.15 L 79.54 60.30 L 81.76 55.12 L 80.65 54.38 L 71.77 36.62 L 71.40 34.03 L 70.29 34.03 L 54.75 5.55 Z" fill="#0A31B8"/>
  <path d="M 103.21 15.54 L 86.57 15.54 L 83.24 16.65 L 80.28 19.61 L 71.77 34.40 L 72.14 36.62 L 81.39 55.12 L 82.87 54.38 L 102.47 18.87 L 103.58 16.65 Z" fill="#0232F9"/>
</svg>
