<svg width="66" height="60" viewBox="0 0 66 60" fill="none" xmlns="http://www.w3.org/2000/svg">
<g clip-path="url(#clip0_746_756)">
<path d="M42.6618 46.435C39.4141 46.435 36.5272 45.6805 34.0012 44.1714C31.508 42.6296 29.5397 40.53 28.0962 37.8728C26.6856 35.1827 25.9803 32.099 25.9803 28.6217C25.9803 25.1443 26.6856 22.077 28.0962 19.4197C29.5069 16.7297 31.4588 14.6302 33.952 13.1211C36.4452 11.5793 39.2993 10.8083 42.5142 10.8083C44.4497 10.8083 46.336 11.1692 48.1731 11.8909C50.0431 12.5798 51.7325 13.564 53.2416 14.8434C54.7506 16.09 55.9152 17.5334 56.7353 19.1737L54.1273 20.7976C53.4384 19.3869 52.4706 18.1567 51.224 17.107C50.0102 16.0244 48.6488 15.1878 47.1398 14.5974C45.6307 13.974 44.0889 13.6624 42.5142 13.6624C39.9226 13.6624 37.6098 14.3021 35.5759 15.5815C33.5747 16.8609 32.0001 18.6324 30.8519 20.896C29.7037 23.1268 29.1296 25.702 29.1296 28.6217C29.1296 31.5741 29.7037 34.1822 30.8519 36.4457C32.0001 38.7093 33.5912 40.4808 35.6251 41.7602C37.6918 43.0396 40.0374 43.6793 42.6618 43.6793C44.2693 43.6793 45.8276 43.3513 47.3366 42.6952C48.8457 42.0063 50.2071 41.0713 51.4209 39.8903C52.6675 38.7093 53.6352 37.3643 54.3242 35.8552L56.9322 37.4791C56.0792 39.2178 54.8983 40.7761 53.3892 42.1539C51.913 43.4989 50.2399 44.5487 48.37 45.3032C46.5001 46.0577 44.5974 46.435 42.6618 46.435Z" fill="#0047B5"/>
<path d="M43.0748 54.8661C38.3115 54.8661 34.0774 53.7594 30.3726 51.5462C26.7159 49.2848 23.829 46.2054 21.712 42.3082C19.6431 38.3628 18.6086 33.84 18.6086 28.7399C18.6086 23.6397 19.6431 19.141 21.712 15.2437C23.7809 11.2983 26.6437 8.21899 30.3004 6.00572C33.9571 3.74434 38.1431 2.61365 42.8583 2.61365C45.6971 2.61365 48.4637 3.1429 51.1581 4.20142C53.9006 5.21183 56.3785 6.65527 58.5918 8.53173C60.8051 10.3601 62.5131 12.4771 63.716 14.8829L59.8909 17.2645C58.8805 15.1956 57.4611 13.3913 55.6328 11.8516C53.8525 10.2639 51.8558 9.03694 49.6425 8.17088C47.4292 7.2567 45.1678 6.79961 42.8583 6.79961C39.0573 6.79961 35.6652 7.73785 32.6821 9.61431C29.7471 11.4908 27.4376 14.089 25.7536 17.4089C24.0696 20.6807 23.2276 24.4577 23.2276 28.7399C23.2276 33.0702 24.0696 36.8953 25.7536 40.2152C27.4376 43.5351 29.7712 46.1333 32.7543 48.0097C35.7855 49.8862 39.2257 50.8244 43.0748 50.8244C45.4325 50.8244 47.7179 50.3433 49.9312 49.381C52.1444 48.3706 54.1412 46.9993 55.9214 45.2672C57.7498 43.5351 59.1692 41.5624 60.1796 39.3491L64.0047 41.7308C62.7537 44.2809 61.0216 46.5663 58.8083 48.5871C56.6432 50.5598 54.1893 52.0995 51.4468 53.2061C48.7043 54.3127 45.9136 54.8661 43.0748 54.8661Z" fill="#0047B5"/>
<mask id="mask0_746_756" style="mask-type:alpha" maskUnits="userSpaceOnUse" x="5" y="4" width="31" height="50">
<path d="M36 29C36 42.8071 23.464 54 8 54H5V4H8C23.464 4 36 15.1929 36 29Z" fill="#D9D9D9"/>
</mask>
<g mask="url(#mask0_746_756)">
<ellipse cx="12.5" cy="28.5" rx="24.5" ry="26.5" fill="url(#paint0_linear_746_756)"/>
<g filter="url(#filter0_d_746_756)">
<mask id="mask1_746_756" style="mask-type:alpha" maskUnits="userSpaceOnUse" x="-9" y="-9" width="79" height="70">
<rect width="6.55859" height="6.43021" transform="matrix(0.514129 -0.857713 0.902277 0.431156 5.98633 53.0703)" fill="white"/>
<rect width="6.46389" height="6.43021" transform="matrix(0.514129 -0.857713 0.902277 0.431156 10.4175 45.6777)" fill="white"/>
<rect width="6.46389" height="6.43021" transform="matrix(0.514129 -0.857713 0.902277 0.431156 14.8486 38.2856)" fill="white"/>
<rect width="6.46389" height="6.43021" transform="matrix(0.514129 -0.857713 0.902277 0.431156 19.2797 30.8936)" fill="white"/>
<rect width="6.46389" height="6.43021" transform="matrix(0.514129 -0.857713 0.902277 0.431156 23.7103 23.501)" fill="white"/>
<rect width="6.46389" height="6.43021" transform="matrix(0.514129 -0.857713 0.902277 0.431156 28 15.5439)" fill="white"/>
<rect width="6.46389" height="6.43021" transform="matrix(0.514129 -0.857713 0.902277 0.431156 32.5729 8.71655)" fill="white"/>
<rect width="6.46389" height="6.43021" transform="matrix(0.514129 -0.857713 0.902277 0.431156 19.7783 46.6638)" fill="white"/>
<rect width="6.46389" height="6.43021" transform="matrix(0.514129 -0.857713 0.902277 0.431156 15.2211 54.2417)" fill="white"/>
<rect width="6.40605" height="6.43021" transform="matrix(0.514129 -0.857713 0.902277 0.431156 24.2095 39.2715)" fill="white"/>
<rect width="6.46389" height="6.43021" transform="matrix(0.514129 -0.857713 0.902277 0.431156 28.6401 31.8794)" fill="white"/>
<rect width="6.46389" height="6.43021" transform="matrix(0.514129 -0.857713 0.902277 0.431156 33.0719 24.4868)" fill="white"/>
<rect width="7.50004" height="7.7017" transform="matrix(0.514129 -0.857713 0.902277 0.431156 31.5332 57.1841)" fill="white"/>
<rect width="6.46389" height="6.43021" transform="matrix(0.514129 -0.857713 0.902277 0.431156 -0.640747 47.5256)" fill="white"/>
<rect width="6.46389" height="6.43021" transform="matrix(0.514129 -0.857713 0.902277 0.431156 3.79004 40.1333)" fill="white"/>
<rect width="6.46389" height="6.43021" transform="matrix(0.514129 -0.857713 0.902277 0.431156 -0.703125 30.7576)" fill="white"/>
<rect width="6.46389" height="6.43021" transform="matrix(0.514129 -0.857713 0.902277 0.431156 -3.70319 17.7576)" fill="white"/>
<rect width="6.46389" height="6.43021" transform="matrix(0.514129 -0.857713 0.902277 0.431156 8.22101 32.7407)" fill="white"/>
<rect width="6.46389" height="6.43021" transform="matrix(0.514129 -0.857713 0.902277 0.431156 3.72797 23.365)" fill="white"/>
<rect width="6.46389" height="6.43021" transform="matrix(0.514129 -0.857713 0.902277 0.431156 2 9.54419)" fill="white"/>
<rect width="5.80095" height="6.43021" transform="matrix(0.514129 -0.857713 0.902277 0.431156 12.6522 25.3491)" fill="white"/>
<rect width="5.80095" height="6.43021" transform="matrix(0.514129 -0.857713 0.902277 0.431156 8.15906 15.9734)" fill="white"/>
<rect width="5.80095" height="6.43021" transform="matrix(0.514129 -0.857713 0.902277 0.431156 5.159 2.97339)" fill="white"/>
<rect width="6.46389" height="6.43021" transform="matrix(0.514129 -0.857713 0.902277 0.431156 12.2312 9.78076)" fill="white"/>
<rect width="6.46389" height="6.43021" transform="matrix(0.514129 -0.857713 0.902277 0.431156 16.7243 19.1565)" fill="white"/>
<rect width="6.46389" height="6.43021" transform="matrix(0.514129 -0.857713 0.902277 0.431156 21 11.5442)" fill="white"/>
</mask>
<g mask="url(#mask1_746_756)">
<ellipse cx="28.5043" cy="27.6133" rx="28.5043" ry="27.6133" transform="matrix(0.514129 -0.857713 0.902277 0.431156 -32.1235 45.8169)" fill="url(#paint1_linear_746_756)"/>
</g>
</g>
</g>
<rect x="26" y="42" width="1" height="1" fill="#2C2C2C"/>
<g filter="url(#filter1_b_746_756)">
<rect x="7" y="5" width="3" height="41" fill="white" fill-opacity="0.01"/>
</g>
<g filter="url(#filter2_b_746_756)">
<path d="M36 29C36 42.8071 23.464 54 8 54H5V4H8C23.464 4 36 15.1929 36 29Z" fill="#0029FF" fill-opacity="0.1"/>
</g>
<path d="M4 4.00006L3.84773 2.50781L2.5 2.64533L2.5 4.00006L4 4.00006ZM33.0466 25.3711L33.4177 26.8245L36.3244 26.0824L35.9534 24.629L33.0466 25.3711ZM5.5 46.5001L5.5 4.00006L2.5 4.00006L2.5 46.5001L5.5 46.5001ZM4.15227 5.49231C7.99904 5.09978 14.1307 5.62173 19.8413 8.47902C25.496 11.3083 30.7648 16.4339 33.0466 25.3711L35.9534 24.629C33.4352 14.7662 27.5373 8.97511 21.1837 5.79611C14.886 2.64506 8.16762 2.067 3.84773 2.50781L4.15227 5.49231Z" fill="#072756"/>
</g>
<defs>
<filter id="filter0_d_746_756" x="-8.13391" y="6.07446" width="44.4901" height="55.4706" filterUnits="userSpaceOnUse" color-interpolation-filters="sRGB">
<feFlood flood-opacity="0" result="BackgroundImageFix"/>
<feColorMatrix in="SourceAlpha" type="matrix" values="0 0 0 0 0 0 0 0 0 0 0 0 0 0 0 0 0 0 127 0" result="hardAlpha"/>
<feOffset dy="1.07167"/>
<feComposite in2="hardAlpha" operator="out"/>
<feColorMatrix type="matrix" values="0 0 0 0 0.227451 0 0 0 0 0.376471 0 0 0 0 0.239216 0 0 0 1 0"/>
<feBlend mode="normal" in2="BackgroundImageFix" result="effect1_dropShadow_746_756"/>
<feBlend mode="normal" in="SourceGraphic" in2="effect1_dropShadow_746_756" result="shape"/>
</filter>
<filter id="filter1_b_746_756" x="3" y="1" width="11" height="49" filterUnits="userSpaceOnUse" color-interpolation-filters="sRGB">
<feFlood flood-opacity="0" result="BackgroundImageFix"/>
<feGaussianBlur in="BackgroundImageFix" stdDeviation="2"/>
<feComposite in2="SourceAlpha" operator="in" result="effect1_backgroundBlur_746_756"/>
<feBlend mode="normal" in="SourceGraphic" in2="effect1_backgroundBlur_746_756" result="shape"/>
</filter>
<filter id="filter2_b_746_756" x="4" y="3" width="33" height="52" filterUnits="userSpaceOnUse" color-interpolation-filters="sRGB">
<feFlood flood-opacity="0" result="BackgroundImageFix"/>
<feGaussianBlur in="BackgroundImageFix" stdDeviation="0.5"/>
<feComposite in2="SourceAlpha" operator="in" result="effect1_backgroundBlur_746_756"/>
<feBlend mode="normal" in="SourceGraphic" in2="effect1_backgroundBlur_746_756" result="shape"/>
</filter>
<linearGradient id="paint0_linear_746_756" x1="-15.0431" y1="51.9739" x2="58.9716" y2="-9.8592" gradientUnits="userSpaceOnUse">
<stop offset="0.125" stop-color="#73CD49"/>
<stop offset="0.244792" stop-color="#78CBFA"/>
<stop offset="0.395833" stop-color="#5459D8"/>
<stop offset="0.567708" stop-color="#9A50E4"/>
<stop offset="0.723958" stop-color="#9A0000"/>
</linearGradient>
<linearGradient id="paint1_linear_746_756" x1="50.6007" y1="3.53193" x2="5.56509" y2="66.8661" gradientUnits="userSpaceOnUse">
<stop stop-color="#FF7A00"/>
<stop offset="0.453125" stop-color="#E9F2FF"/>
<stop offset="1" stop-color="#009821"/>
</linearGradient>
<clipPath id="clip0_746_756">
<rect width="66" height="60" fill="white"/>
</clipPath>
</defs>
</svg>
