<svg width="1606" height="1055" viewBox="0 0 1606 1055" fill="none" xmlns="http://www.w3.org/2000/svg">
<rect width="1606" height="1055" fill="#091414"/>
<path d="M812.234 537.418C796.859 500.878 822.218 444.814 861.256 429.965C873.692 425.235 920.859 419.485 933.232 420.902" stroke="url(#paint0_linear_463_2)" stroke-width="13.4442"/>
<path d="M783.924 434.299L933.233 420.902L743.583 381.368M783.924 434.299L813.542 541.731L779.112 513.538M783.924 434.299L743.583 381.368M743.583 381.368L730.904 545.068L779.112 513.538M743.583 381.368L779.112 513.538" stroke="url(#paint1_linear_463_2)" stroke-width="13.4442"/>
<path d="M536.544 716.733V627.133H549.984L550.701 640.394C556.794 630.12 566.172 624.983 578.835 624.983C589.707 624.983 598.249 628.328 604.461 635.018C610.793 641.708 613.899 651.863 613.779 665.482V716.733H599.443V670.858C599.443 662.017 598.368 655.267 596.218 650.608C594.187 645.949 591.379 642.783 587.795 641.111C584.211 639.319 580.209 638.423 575.789 638.423C567.904 638.423 561.751 641.23 557.331 646.845C553.03 652.46 550.88 660.285 550.88 670.32V716.733H536.544ZM676.61 718.883C667.889 718.883 660.123 716.912 653.314 712.97C646.504 708.908 641.188 703.353 637.365 696.304C633.542 689.256 631.631 681.132 631.631 671.933C631.631 662.734 633.542 654.61 637.365 647.562C641.188 640.513 646.444 635.018 653.135 631.075C659.825 627.014 667.53 624.983 676.251 624.983C684.972 624.983 692.678 627.014 699.368 631.075C706.178 635.018 711.434 640.513 715.138 647.562C718.961 654.61 720.872 662.734 720.872 671.933C720.872 681.132 718.961 689.256 715.138 696.304C711.434 703.353 706.238 708.908 699.547 712.97C692.857 716.912 685.211 718.883 676.61 718.883ZM676.61 705.623C682.464 705.623 687.601 704.249 692.021 701.501C696.561 698.634 700.085 694.632 702.594 689.495C705.222 684.358 706.536 678.504 706.536 671.933C706.536 665.243 705.222 659.389 702.594 654.371C699.966 649.234 696.382 645.232 691.842 642.365C687.302 639.498 682.105 638.064 676.251 638.064C670.398 638.064 665.201 639.498 660.661 642.365C656.121 645.232 652.537 649.234 649.909 654.371C647.4 659.389 646.146 665.243 646.146 671.933C646.146 678.504 647.46 684.358 650.088 689.495C652.716 694.632 656.3 698.634 660.84 701.501C665.38 704.249 670.636 705.623 676.61 705.623ZM786.465 716.733L786.823 627.133H801.159L800.801 716.733H786.465ZM793.812 606.346C791.303 606.346 789.153 605.45 787.361 603.658C785.688 601.866 784.852 599.775 784.852 597.386C784.852 594.877 785.688 592.786 787.361 591.114C789.153 589.322 791.303 588.426 793.812 588.426C796.321 588.426 798.412 589.322 800.084 591.114C801.876 592.786 802.772 594.877 802.772 597.386C802.772 599.775 801.876 601.866 800.084 603.658C798.412 605.45 796.321 606.346 793.812 606.346ZM827.219 716.733V627.133H840.659L841.376 640.394C847.469 630.12 856.847 624.983 869.51 624.983C877.395 624.983 884.085 626.715 889.581 630.179C895.076 633.644 899.078 638.9 901.587 645.949C904.335 639.259 908.277 634.122 913.414 630.538C918.671 626.834 925.062 624.983 932.589 624.983C943.341 624.983 951.823 628.328 958.035 635.018C964.367 641.708 967.533 651.863 967.533 665.482V716.733H953.197V670.858C953.197 662.017 952.121 655.267 949.971 650.608C947.94 645.949 945.133 642.783 941.549 641.111C937.965 639.319 933.903 638.423 929.363 638.423C921.478 638.423 915.326 641.23 910.905 646.845C906.605 652.46 904.454 660.285 904.454 670.32V716.733H890.118V670.858C890.118 662.017 889.043 655.267 886.893 650.608C884.862 645.949 882.054 642.783 878.47 641.111C874.886 639.319 870.884 638.423 866.464 638.423C858.579 638.423 852.426 641.23 848.006 646.845C843.705 652.46 841.555 660.285 841.555 670.32V716.733H827.219ZM1025.45 716.016C1017.44 716.016 1010.39 714.105 1004.3 710.282C998.208 706.459 993.429 701.143 989.965 694.333C986.62 687.523 984.947 679.639 984.947 670.679C984.947 661.599 986.62 653.655 989.965 646.845C993.429 639.916 998.208 634.54 1004.3 630.717C1010.39 626.894 1017.44 624.983 1025.45 624.983C1032.02 624.983 1037.93 626.536 1043.19 629.642C1048.44 632.628 1052.68 636.87 1055.91 642.365V627.133H1070.25V708.131C1070.25 718.406 1068.28 727.007 1064.33 733.936C1060.51 740.865 1055.25 746.062 1048.56 749.527C1041.99 752.991 1034.47 754.723 1025.98 754.723C1020.13 754.723 1014.87 754.126 1010.21 752.931C1005.56 751.856 1001.55 750.602 998.208 749.168C994.982 747.854 992.653 746.719 991.219 745.763L996.595 734.115C998.865 735.43 1002.63 737.042 1007.88 738.954C1013.14 740.865 1019.11 741.821 1025.8 741.821C1034.53 741.821 1041.69 739.133 1047.31 733.757C1053.04 728.5 1055.91 720.018 1055.91 708.311V698.813C1052.68 704.189 1048.44 708.43 1043.19 711.536C1037.93 714.523 1032.02 716.016 1025.45 716.016ZM1028.85 703.651C1034.11 703.651 1038.77 702.218 1042.83 699.351C1046.89 696.483 1050.06 692.601 1052.33 687.703C1054.6 682.685 1055.73 676.891 1055.73 670.32C1055.73 663.988 1054.54 658.374 1052.15 653.475C1049.88 648.458 1046.71 644.575 1042.65 641.827C1038.71 638.96 1034.05 637.527 1028.67 637.527C1023.06 637.527 1018.04 638.96 1013.62 641.827C1009.32 644.575 1005.91 648.458 1003.4 653.475C1001.02 658.374 999.821 663.988 999.821 670.32C999.821 676.891 1001.08 682.685 1003.58 687.703C1006.09 692.601 1009.5 696.483 1013.8 699.351C1018.22 702.218 1023.24 703.651 1028.85 703.651Z" fill="white"/>
<defs>
<linearGradient id="paint0_linear_463_2" x1="909.452" y1="450.009" x2="806.007" y2="493.535" gradientUnits="userSpaceOnUse">
<stop stop-color="#00FFD2"/>
<stop offset="1" stop-color="#114239"/>
</linearGradient>
<linearGradient id="paint1_linear_463_2" x1="807.113" y1="417.929" x2="870.425" y2="495.008" gradientUnits="userSpaceOnUse">
<stop stop-color="#92CEC0"/>
<stop offset="1" stop-color="white"/>
</linearGradient>
</defs>
</svg>
