<svg width="512" height="512" viewBox="0 0 512 512" fill="none" xmlns="http://www.w3.org/2000/svg">
	<rect width="512" height="512" rx="96" fill="#FFFFFF"/>
	<g transform="translate(139 145)">
		<path d="M122.701 155.312L125.522 154.308C120.822 143.856 122.229 130.178 128.272 117.747C134.298 105.352 144.647 94.8118 156.895 90.4529L155.662 87.7112L154.429 84.9694C140.428 89.9522 129.128 101.719 122.651 115.041C116.191 128.329 114.242 143.78 119.88 156.317L122.701 155.312ZM155.662 87.7112L156.895 90.4529C160.916 89.0218 167.634 87.1568 174.383 85.7622C181.255 84.3421 187.657 83.5201 191.254 83.9057L191.415 81.0045L191.576 78.1033C186.853 77.5972 179.56 78.6405 172.726 80.0526C165.769 81.4903 158.77 83.4244 154.429 84.9694L155.662 87.7112Z" fill="#000000"/>
		<path d="M193.918 81.0043L194.359 83.8029L194.559 78.2582L193.918 81.0043ZM123.578 158.027L121.538 160.143L129.19 166.006L126.646 157.372L123.578 158.027ZM68.0132 160.126L64.8495 159.856L64.3556 165.822L69.8528 162.458L68.0132 160.126ZM76.5387 57.1384L77.1794 54.3923L73.6395 53.6726L73.375 56.8684L76.5387 57.1384ZM103.663 90.4386L104.105 93.2372L194.359 83.8029L193.918 81.0043L193.477 78.2057L103.222 87.6399L103.663 90.4386ZM123.578 158.027L126.646 157.372L106.731 89.7834L103.663 90.4386L100.596 91.0938L120.51 158.682L123.578 158.027ZM68.0132 160.126L71.1769 160.396L79.7023 57.4085L76.5387 57.1384L73.375 56.8684L64.8495 159.856L68.0132 160.126ZM123.578 158.027L125.618 155.911L102.468 138.174L100.428 140.29L98.3877 142.405L121.538 160.143L123.578 158.027ZM100.428 140.29L98.5885 137.957L66.1736 157.794L68.0132 160.126L69.8528 162.458L102.268 142.622L100.428 140.29ZM76.5387 57.1384L73.466 57.7767L97.3555 140.928L100.428 140.29L103.501 139.651L79.6113 56.5002L76.5387 57.1384ZM103.663 90.4386L106.219 88.821L79.0941 55.5209L76.5387 57.1384L73.9832 58.7559L101.108 92.0561L103.663 90.4386ZM76.5387 57.1384L75.898 59.8845L193.277 83.7504L193.918 81.0043L194.559 78.2582L77.1794 54.3923L76.5387 57.1384Z" fill="#000000"/>
	</g>
</svg>
